# xmcd
# Track frame offsets:
# 150
# 21726
# 44765
# 63544
# 76433
# 85103
# 107721
# 123919
# 154757
# 171428
#
# Disc length: 2431 seconds
# Revision: 1
# Processed by: cddbd v1.5.1PL2 Copyright (c) Steve Scherf et al.
# Submitted via: VisiTrax 2.9.10.220 - For more info visit www.synapsa.com
#
DISCID=88097d0a
DTITLE=Michael McDonald - Through the Many Winters
DYEAR=2005
DGENRE=Jazz
TTITLE0=Silent Night
TTITLE1=O Holy Night
TTITLE2=Come O Come Emanuel - What Month Was Jesus Born
TTITLE3=Deck the Halls - Jingle Bells
TTITLE4=O Tannebaum
TTITLE5=Wexford Carol
TTITLE6=God Rest Ye Merry Gentlemen
TTITLE7=Through the Many Winters
TTITLE8=Christmas on the Bayou
TTITLE9=Auld Lany Syne - O Tannebaum
EXTD=YEAR: 2005
EXTT0=
EXTT1=
EXTT2=
EXTT3=
EXTT4=
EXTT5=
EXTT6=
EXTT7=
EXTT8=
EXTT9=
PLAYORDER=
